<svg xmlns="http://www.w3.org/2000/svg" version="1.1" x="0" y="0" viewBox="0 0 652 652" xml:space="preserve">
  <path d="M296.6 349.4c-50.1 0-90.8-40.6-90.8-90.8 0-50.1 40.6-90.8 90.8-90.8 28.5 0 53.9 13.1 70.5 33.6 21-17 45.2-36.6 70.5-57.1C404.3 103.2 353.5 77 296.5 77 196.2 77 115 158.3 115 258.5 115 358.8 196.3 440 296.5 440c57 0 107.8-26.2 141.1-67.3l-70.5-57.1c-16.6 20.7-42 33.8-70.5 33.8" fill="#008dd7"/>
  <path fill="#00aee5" d="M367.2 315.8c12.6-15.6 20.2-35.5 20.2-57.1s-7.6-41.5-20.2-57.1c-41.6 33.7-70.5 57.1-70.5 57.1l70.5 57.1zM568.9 258.6c0-64.9-22.7-124.6-60.7-171.4-23.4 19-47.5 38.4-70.5 57.1 25.3 31.2 40.5 70.9 40.5 114.2s-15.2 83-40.5 114.2l70.5 57.1c38-46.6 60.7-106.2 60.7-171.2"/>
  <path d="M437.7 144.4c-25.3 20.5-49.5 40.1-70.5 57.1 12.6 15.6 20.2 35.5 20.2 57.1s-7.6 41.5-20.2 57.1l70.5 57.1c25.3-31.2 40.5-70.9 40.5-114.2 0-43.2-15.2-83-40.5-114.2" fill="#0069a6"/>
  <path fill="#000000" d="M280.2 554.1c-4.1 3.6-9.2 5.3-15 5.5-5.9-.2-11.2-2.1-15.3-5.8-4.2-3.9-6.3-8.9-6.2-15 0-6 2.2-11.1 6.3-15.1 4-3.9 9.1-5.9 15.1-6.1 5.7 0 10.6 1.8 14.9 4.9l13-13.2c-5.1-4.2-10.9-7-17.6-8.3-2.6-.6-5.4-.8-8.2-.9h-2.1c-.5 0-1 0-1.5.1h-.2c-2.8.1-5.6.5-8.2 1.1-7.3 1.6-13.6 4.9-19 9.9-7.7 7.3-11.7 16.5-11.8 27.8-.1 11.3 3.8 20.4 11.5 27.5 2.6 2.4 5.4 4.3 8.5 5.9 6 3 12.7 4.5 20.2 4.4h.6c7.5-.1 13.9-2.1 19.9-5.2 2.7-1.4 5.3-3.2 7.6-5.3l-12.5-12.2zM581.3 554.1c-4.1 3.6-9.2 5.3-15 5.5-5.9-.2-11.2-2.1-15.3-5.8-4.2-3.9-6.3-8.9-6.2-15 0-6 2.2-11.1 6.3-15.1 4-3.9 9.1-5.9 15.1-6.1 5.7 0 10.6 1.8 14.9 4.9l13-13.2c-5.1-4.2-10.9-7-17.6-8.3-2.6-.6-5.4-.8-8.2-.9h-2.1c-.5 0-1 0-1.5.1h-.2c-2.8.1-5.6.5-8.2 1.1-7.3 1.6-13.6 4.9-19 9.9-7.7 7.3-11.7 16.5-11.8 27.8-.1 11.3 3.8 20.4 11.5 27.5 2.6 2.4 5.4 4.3 8.5 5.9 6 3 12.7 4.5 20.2 4.4h.6c7.5-.1 13.9-2.1 19.9-5.2 2.7-1.4 5.3-3.2 7.6-5.3l-12.5-12.2zM336 577.1c-11.3 0-20.7-3.7-28.2-11.3-7.5-7.6-11.2-16.7-11.2-27.5s3.7-19.9 11.2-27.5c7.5-7.6 16.9-11.3 28.2-11.3s20.7 3.7 28.2 11.3c7.5 7.6 11.2 16.7 11.2 27.5s-3.7 19.9-11.2 27.5c-7.5 7.6-16.9 11.3-28.2 11.3m0-17.7c5.7 0 10.2-2 14-6 3.7-3.9 5.7-9.1 5.7-15.1 0-6.1-1.9-11.2-5.7-15.1-3.7-3.9-8.3-6-14-6-5.7 0-10.3 2-14.1 6-3.7 3.9-5.5 9.1-5.5 15.1 0 6.1 1.8 11.2 5.5 15.1 3.7 4 8.4 6 14.1 6M173.5 577.1c-11.3 0-20.7-3.7-28.2-11.3-7.5-7.6-11.2-16.7-11.2-27.5s3.7-19.9 11.2-27.5c7.5-7.6 16.9-11.3 28.2-11.3s20.7 3.7 28.2 11.3c7.5 7.6 11.2 16.7 11.2 27.5s-3.7 19.9-11.2 27.5c-7.5 7.6-16.9 11.3-28.2 11.3m0-17.7c5.7 0 10.2-2 14-6 3.7-3.9 5.7-9.1 5.7-15.1 0-6.1-1.9-11.2-5.7-15.1-3.7-3.9-8.3-6-14-6-5.7 0-10.3 2-14.1 6-3.7 3.9-5.5 9.1-5.5 15.1 0 6.1 1.8 11.2 5.5 15.1 3.8 4 8.5 6 14.1 6M444.4 501.1h-64.1V518h18.5c2.2 0 3.9 1.8 3.9 3.9v53.9h19.2v-53.9c0-2.2 1.8-3.9 3.9-3.9h18.6v-16.9zM514.9 559h-33.5c-2.2 0-3.9-1.8-3.9-3.9v-9h28.6v-15.7h-28.6v-8.3c0-2.2 1.8-3.9 3.9-3.9H514v-16.8h-55.8v74.7h56.6V559zM99.4 531c-14.9-2.8-16.6-5.7-16.4-8.8.3-3.4 4.4-5.1 10.1-5.3 6.1-.2 13.3.9 20.8 4.9l11.9-12.9c-9.2-5.9-21-9-33-8.6-17.9.6-29.5 10.5-29 24v.2c.4 12.8 10.7 18.6 27.5 21.8 14.7 2.8 16.5 5.3 16.6 7.9v.2c.1 3.4-5.8 5.7-12.4 5.9-8.3.3-17.9-1.8-25.5-7.5h-.1l-11.6 12.8 1 .7c10.1 7.3 23 11 36.5 10.6 19.6-.7 31.7-11.4 31.2-24.7v-.2c-.5-12.6-11-17.8-27.6-21"/>
</svg>